<svg width="220" height="199" viewBox="0 0 220 199" fill="none" xmlns="http://www.w3.org/2000/svg">
<path d="M155.382 9.42627L129.797 22.7304L155.382 31.9409V9.42627Z" stroke="#3C442B" stroke-width="4"/>
<path d="M102.549 9.42627L128.134 22.7304L102.549 31.9409V9.42627Z" stroke="#3C442B" stroke-width="4"/>
<path d="M205.703 89.2511L235.382 125.07C235.382 125.07 210.82 146.561 177.048 196.707C143.276 246.854 137.136 297 137.136 297C137.136 297 153.51 143.491 161.697 96.4148C169.884 49.3387 191.376 0.21582 191.376 0.21582L246.639 59.5727L205.703 89.2511Z" fill="#3C442B"/>
<path d="M40.9355 89.2511L11.2571 125.07C11.2571 125.07 35.8186 146.561 69.5906 196.707C103.363 246.854 109.503 297 109.503 297C109.503 297 93.1286 143.491 84.9415 96.4148C76.7543 49.3387 55.2631 0.21582 55.2631 0.21582L-0.000198364 59.5727L40.9355 89.2511Z" fill="#3C442B"/>
</svg>
